HIERARCHY
ROOT pelvis
{
	OFFSET 0.000000 0.000000 0.000000
	CHANNELS 6 Xposition Yposition Zposition Xrotation Yrotation Zrotation
	JOINT l_hip
	{
		OFFSET 0.195211 -0.245059 -0.022011
		CHANNELS 3 Xrotation Yrotation Zrotation
		JOINT l_knee
		{
			OFFSET 0.083896 -0.996307 -0.018298
			CHANNELS 3 Xrotation Yrotation Zrotation
			JOINT l_ankle
			{
				OFFSET -0.031606 -1.048662 -0.119000
				CHANNELS 3 Xrotation Yrotation Zrotation
				JOINT l_foot
				{
					OFFSET 0.063841 -0.149483 0.312863
					CHANNELS 3 Xrotation Yrotation Zrotation
					End Site
					{
						OFFSET 0.000000 0.000000 0.000000
					}
				}
			}
		}
	}
	JOINT r_hip
	{
		OFFSET -0.188785 -0.243354 -0.013119
		CHANNELS 3 Xrotation Yrotation Zrotation
		JOINT r_knee
		{
			OFFSET -0.098896 -1.013926 -0.025127
			CHANNELS 3 Xrotation Yrotation Zrotation
			JOINT r_ankle
			{
				OFFSET 0.038376 -1.049454 -0.114596
				CHANNELS 3 Xrotation Yrotation Zrotation
				JOINT r_foot
				{
					OFFSET -0.060300 -0.126955 0.322518
					CHANNELS 3 Xrotation Yrotation Zrotation
					End Site
					{
						OFFSET 0.000000 0.000000 0.000000
					}
				}
			}
		}
	}
	JOINT spine1
	{
		OFFSET -0.006861 0.282462 -0.060688
		CHANNELS 3 Xrotation Yrotation Zrotation
		JOINT spine2
		{
			OFFSET 0.009796 0.349212 -0.004686
			CHANNELS 3 Xrotation Yrotation Zrotation
			JOINT spine3
			{
				OFFSET 0.005545 0.134239 0.076232
				CHANNELS 3 Xrotation Yrotation Zrotation
				JOINT neck
				{
					OFFSET -0.005369 0.569656 -0.136135
					CHANNELS 3 Xrotation Yrotation Zrotation
					JOINT head
					{
						OFFSET 0.009621 0.170484 0.137338
						CHANNELS 3 Xrotation Yrotation Zrotation
						End Site
						{
							OFFSET 0.000000 0.000000 0.000000
						}
					}
				}
				JOINT l_collar
				{
					OFFSET 0.205981 0.322192 -0.100872
					CHANNELS 3 Xrotation Yrotation Zrotation
					JOINT l_shoulder
					{
						OFFSET 0.233388 0.086823 -0.019950
						CHANNELS 3 Xrotation Yrotation Zrotation
						JOINT l_elbow
						{
							OFFSET 0.687295 -0.032736 -0.075278
							CHANNELS 3 Xrotation Yrotation Zrotation
							JOINT l_wrist
							{
								OFFSET 0.651109 0.024639 0.000120
								CHANNELS 3 Xrotation Yrotation Zrotation
								JOINT l_hand
								{
									OFFSET 0.217934 -0.026487 -0.036124
									CHANNELS 3 Xrotation Yrotation Zrotation
									End Site
									{
										OFFSET 0.000000 0.000000 0.000000
									}
								}
							}
						}
					}
				}
				JOINT r_collar
				{
					OFFSET -0.210726 0.316244 -0.114374
					CHANNELS 3 Xrotation Yrotation Zrotation
					JOINT r_shoulder
					{
						OFFSET -0.244017 0.089684 -0.026814
						CHANNELS 3 Xrotation Yrotation Zrotation
						JOINT r_elbow
						{
							OFFSET -0.672913 -0.035979 -0.055153
							CHANNELS 3 Xrotation Yrotation Zrotation
							JOINT r_wrist
							{
								OFFSET -0.670689 0.023586 -0.009661
								CHANNELS 3 Xrotation Yrotation Zrotation
								JOINT r_hand
								{
									OFFSET -0.219937 -0.019827 -0.028502
									CHANNELS 3 Xrotation Yrotation Zrotation
									End Site
									{
										OFFSET 0.000000 0.000000 0.000000
									}
								}
							}
						}
					}
				}
			}
		}
	}
}
MOTION
Frames: 12
Frame Time: 0.016667
0.000000 0.000000 0.000000 0.000000 0.000000 0.000000 1.110403 -0.240919 0.626977 53.048128 -7.531503 -0.685247 0.000000 0.000000 0.000000 0.000000 0.000000 0.000000 -13.162250 -0.433511 -0.156149 17.792962 -2.841188 1.414579 0.000000 0.000000 0.000000 0.000000 0.000000 0.000000 8.778615 -2.359934 3.808005 -1.444457 -0.529453 -0.635061 4.394045 -3.444978 -0.914709 6.656592 -3.139327 3.361975 20.516920 2.030942 0.509925 6.498441 0.679262 -24.646184 -4.600299 -14.107707 -60.476269 -1.686835 -10.961212 -1.220143 0.000000 0.000000 0.000000 0.000000 0.000000 0.000000 -0.573582 4.559613 21.831232 2.683299 22.654816 56.477557 4.926911 16.055533 -0.816670 0.000000 0.000000 0.000000 0.000000 0.000000 0.000000 
0.000000 0.000000 0.000000 0.000000 0.000000 0.000000 -1.550409 -0.703285 0.342006 55.623762 -6.158552 -1.706021 0.000000 0.000000 0.000000 0.000000 0.000000 0.000000 -12.398666 -0.501758 -0.021147 17.582026 -2.262690 1.117344 0.000000 0.000000 0.000000 0.000000 0.000000 0.000000 8.805617 -1.678936 3.675003 -1.880634 -0.456733 -0.753090 4.596452 -3.260585 -1.063789 6.548385 -3.202246 3.580182 20.660973 1.900179 0.408772 6.481249 1.159971 -24.558505 -3.966907 -13.262692 -60.138452 -1.067089 -10.509608 -1.108276 0.000000 0.000000 0.000000 0.000000 0.000000 0.000000 -0.832681 4.567801 21.603916 2.139682 23.199989 56.027513 5.776612 17.526227 -1.407388 0.000000 0.000000 0.000000 0.000000 0.000000 0.000000 
0.000000 0.000000 0.000000 0.000000 0.000000 0.000000 -4.304176 -1.181585 0.216082 57.664911 -4.667424 -2.863241 0.000000 0.000000 0.000000 0.000000 0.000000 0.000000 -11.708513 -0.570228 0.179084 17.271555 -1.751806 0.785447 0.000000 0.000000 0.000000 0.000000 0.000000 0.000000 8.761445 -1.039641 3.470152 -2.321868 -0.386862 -0.823464 4.719759 -3.071666 -1.181268 6.401230 -3.368502 3.699977 21.013000 1.576399 0.336353 6.544141 1.733434 -24.363849 -3.385260 -12.584614 -59.976646 -1.055727 -10.467039 -1.032227 0.000000 0.000000 0.000000 0.000000 0.000000 0.000000 -1.080961 4.571876 21.327989 1.541638 23.863882 55.686773 5.846163 18.680585 -1.536942 0.000000 0.000000 0.000000 0.000000 0.000000 0.000000 
0.000000 0.000000 0.000000 0.000000 0.000000 0.000000 -6.512557 -1.421547 0.128453 59.366726 -3.669735 -3.920398 0.000000 0.000000 0.000000 0.000000 0.000000 0.000000 -10.165874 -0.740675 0.408647 16.521304 -1.154049 0.458916 0.000000 0.000000 0.000000 0.000000 0.000000 0.000000 8.946377 -0.310280 3.176468 -2.469955 -0.280912 -0.963402 4.836163 -2.756959 -1.313079 6.332428 -3.378521 3.909960 21.069727 1.230295 0.165511 6.543146 2.160590 -24.433358 -2.562871 -11.886316 -59.157865 -0.406806 -10.523791 -1.153729 0.000000 0.000000 0.000000 0.000000 0.000000 0.000000 -1.311319 4.703471 21.247253 1.234487 24.374070 55.068261 6.268021 20.346049 -1.694667 0.000000 0.000000 0.000000 0.000000 0.000000 0.000000 
0.000000 0.000000 0.000000 0.000000 0.000000 0.000000 -8.168032 -1.710087 0.086598 59.951663 -2.975342 -4.899041 0.000000 0.000000 0.000000 0.000000 0.000000 0.000000 -8.604746 -0.965621 0.491431 15.749501 -0.598580 0.206050 0.000000 0.000000 0.000000 0.000000 0.000000 0.000000 9.048784 0.380166 2.901350 -2.587110 -0.113644 -0.986046 5.010921 -2.398286 -1.357617 6.506360 -3.467442 4.045166 21.302899 0.913385 0.039829 6.568680 2.748713 -24.464552 -2.045327 -11.281793 -58.643836 -0.759829 -10.812049 -1.723272 0.000000 0.000000 0.000000 0.000000 0.000000 0.000000 -1.361176 4.696039 21.140870 1.159852 24.698342 54.320114 6.187553 22.262327 -2.000065 0.000000 0.000000 0.000000 0.000000 0.000000 0.000000 
0.000000 0.000000 0.000000 0.000000 0.000000 0.000000 -9.453580 -1.711427 -0.064599 59.782626 -2.624151 -5.703138 0.000000 0.000000 0.000000 0.000000 0.000000 0.000000 -7.054603 -1.343831 0.232512 15.193203 -0.075952 0.119367 0.000000 0.000000 0.000000 0.000000 0.000000 0.000000 9.462560 1.000062 2.686978 -2.792545 0.105360 -1.131650 5.118441 -1.991638 -1.465648 6.583294 -3.562988 4.152832 21.369049 0.646557 -0.105726 6.525230 3.321748 -24.516348 -1.614104 -10.396855 -58.179798 -0.871110 -11.204583 -1.737143 0.000000 0.000000 0.000000 0.000000 0.000000 0.000000 -1.432338 4.737463 20.986142 1.148377 24.731784 53.660011 6.385781 24.404213 -2.514060 0.000000 0.000000 0.000000 0.000000 0.000000 0.000000 
0.000000 0.000000 0.000000 0.000000 0.000000 0.000000 -11.020662 -1.998814 -0.306120 59.240263 -2.203644 -6.390378 0.000000 0.000000 0.000000 0.000000 0.000000 0.000000 -5.399713 -1.687418 0.004776 14.153446 0.437122 0.175526 0.000000 0.000000 0.000000 0.000000 0.000000 0.000000 9.894990 1.622896 2.621282 -3.129749 0.223171 -1.342936 5.248638 -1.656976 -1.585871 6.402772 -3.531222 4.253439 21.602941 0.322474 -0.222304 6.498031 4.059966 -24.400046 -1.010471 -9.696070 -58.075914 -0.999884 -11.731392 -1.730334 0.000000 0.000000 0.000000 0.000000 0.000000 0.000000 -1.634060 4.714625 20.697972 0.874255 25.026124 53.260979 6.522336 25.979118 -2.846254 0.000000 0.000000 0.000000 0.000000 0.000000 0.000000 
0.000000 0.000000 0.000000 0.000000 0.000000 0.000000 -12.517999 -2.498865 -0.430914 58.141909 -1.874440 -7.173898 0.000000 0.000000 0.000000 0.000000 0.000000 0.000000 -3.860610 -2.121470 -0.263643 13.102708 0.657137 0.330805 0.000000 0.000000 0.000000 0.000000 0.000000 0.000000 9.926781 2.286442 2.355616 -3.156180 0.114531 -1.387538 5.382741 -1.403363 -1.640106 6.252083 -3.472530 4.385628 21.636167 -0.064617 -0.100337 6.505615 4.350416 -24.331539 -0.343488 -9.233715 -57.671519 -1.925263 -12.513856 -2.406979 0.000000 0.000000 0.000000 0.000000 0.000000 0.000000 -1.730550 4.749585 20.556018 0.744259 25.307755 52.615803 6.419246 27.820528 -3.048424 0.000000 0.000000 0.000000 0.000000 0.000000 0.000000 
0.000000 0.000000 0.000000 0.000000 0.000000 0.000000 -13.657124 -2.939252 -0.709641 56.185787 -1.734701 -7.610449 0.000000 0.000000 0.000000 0.000000 0.000000 0.000000 -2.362141 -2.481226 -0.335458 12.012408 0.934887 0.186192 0.000000 0.000000 0.000000 0.000000 0.000000 0.000000 9.881351 2.826914 2.155465 -3.084427 0.052140 -1.483426 5.472966 -1.149030 -1.697408 6.249084 -3.474824 4.488892 21.554630 -0.439088 -0.019476 6.539034 4.686806 -24.485680 0.199414 -8.696263 -57.268416 -2.841830 -13.386139 -2.605302 0.000000 0.000000 0.000000 0.000000 0.000000 0.000000 -1.819001 4.791470 20.588633 0.688037 25.496450 51.932909 6.373737 29.557444 -3.545486 0.000000 0.000000 0.000000 0.000000 0.000000 0.000000 
0.000000 0.000000 0.000000 0.000000 0.000000 0.000000 -14.778056 -3.259601 -0.930689 53.973315 -1.298041 -7.863325 0.000000 0.000000 0.000000 0.000000 0.000000 0.000000 -0.735513 -2.724297 -0.262850 10.895350 1.392994 0.070938 0.000000 0.000000 0.000000 0.000000 0.000000 0.000000 10.143939 3.324645 2.035700 -3.129261 0.011910 -1.612332 5.509401 -0.922391 -1.720144 6.199946 -3.426902 4.539914 21.463726 -0.733198 -0.014793 6.547697 5.009386 -24.589982 0.758408 -8.162310 -57.067540 -3.554502 -14.239442 -2.434242 0.000000 0.000000 0.000000 0.000000 0.000000 0.000000 -1.946276 4.891894 20.430134 0.512115 25.729023 51.403040 6.214394 31.183335 -3.833312 0.000000 0.000000 0.000000 0.000000 0.000000 0.000000 
0.000000 0.000000 0.000000 0.000000 0.000000 0.000000 -16.404729 -3.703997 -1.150147 51.392057 -0.465528 -8.289842 0.000000 0.000000 0.000000 0.000000 0.000000 0.000000 0.050773 -2.961471 -0.449894 9.826354 1.721558 0.125879 0.000000 0.000000 0.000000 0.000000 0.000000 0.000000 9.762841 3.863408 1.833407 -3.183247 0.044999 -1.680270 5.622167 -0.709587 -1.797199 5.909653 -3.331830 4.666972 21.356107 -1.063103 -0.017150 6.537476 5.373893 -24.769405 1.302035 -7.997335 -56.737958 -4.222128 -15.031742 -2.698366 0.000000 0.000000 0.000000 0.000000 0.000000 0.000000 -1.971311 4.787745 20.456055 0.350039 26.187041 50.643135 6.328661 32.387189 -4.012635 0.000000 0.000000 0.000000 0.000000 0.000000 0.000000 
0.000000 0.000000 0.000000 0.000000 0.000000 0.000000 -17.264187 -4.102890 -1.285655 48.342278 0.437582 -8.214154 0.000000 0.000000 0.000000 0.000000 0.000000 0.000000 1.551394 -3.262034 -0.424098 8.401934 2.029303 -0.004778 0.000000 0.000000 0.000000 0.000000 0.000000 0.000000 9.903893 4.405207 1.719288 -3.281667 0.059011 -1.803285 5.647109 -0.518098 -1.775247 5.633617 -3.370024 4.673293 21.118169 -1.283522 0.069027 6.506562 5.856925 -24.902431 1.686835 -7.639590 -56.742618 -5.056113 -15.519210 -2.886122 0.000000 0.000000 0.000000 0.000000 0.000000 0.000000 -1.973685 4.656731 20.321442 0.192019 26.468201 50.216682 6.708970 33.523661 -4.530647 0.000000 0.000000 0.000000 0.000000 0.000000 0.000000 
